<?xml version="1.0" encoding="UTF-8"?>
<svg width="26px" height="26px" viewBox="0 0 26 26" version="1.1" xmlns="http://www.w3.org/2000/svg" xmlns:xlink="http://www.w3.org/1999/xlink">
    <!-- Generator: Sketch 60.1 (88133) - https://sketch.com -->
    <title>Artboard@2x</title>
    <desc>Created with Sketch.</desc>
    <g id="Page-1" stroke="none" stroke-width="1" fill="none" fill-rule="evenodd">
        <g id="Artboard" transform="translate(-227.000000, -16.000000)" fill="#CCCCCC" fill-rule="nonzero">
            <path d="M247.824726,36.8122401 C248.531353,36.8122401 249.134065,37.0726535 249.632861,37.5934804 C250.131657,38.1143072 250.381055,38.7288829 250.381055,39.4372074 C250.381055,40.1455319 250.131657,40.749691 249.632861,41.2496847 C249.159347,41.7392705 248.504903,42.0107252 247.824726,41.9996754 C247.136103,42.0070061 246.473397,41.7367835 245.985416,41.2496847 C245.480681,40.7838552 245.197324,40.1248869 245.206048,39.4372074 C245.206048,38.7288829 245.465837,38.1143072 245.985416,37.5934804 C246.504995,37.0726535 247.118099,36.8122401 247.824726,36.8122401 L247.824726,36.8122401 Z M227,16 L231.270939,16 L232.486754,18.562468 L251.721568,18.562468 C252.074882,18.562468 252.376238,18.6926747 252.625636,18.9530881 C252.875034,19.2135015 252.999733,19.5312059 252.999733,19.9062012 C253.004752,20.1194258 252.938956,20.3282793 252.812684,20.4999438 L248.198823,28.9373385 C247.970208,29.3331669 247.653265,29.6560795 247.247993,29.9060764 C246.850486,30.1538616 246.391157,30.283866 245.923067,30.2810717 L236.258898,30.2810717 L235.105432,32.4060452 L235.043083,32.5935428 C235.043083,32.6768751 235.074258,32.7497909 235.136607,32.8122901 C235.193306,32.8724146 235.272293,32.9063475 235.35483,32.9060389 L250.381055,32.9060389 L250.381055,35.5310061 L234.793685,35.5310061 C234.107653,35.5397511 233.450263,35.255713 232.98555,34.7497659 C232.499618,34.2606129 232.230043,33.5963158 232.237356,32.9060389 C232.237356,32.5102105 232.341272,32.1039656 232.549104,31.6873041 L234.294889,28.4373447 L229.618678,18.562468 L227,18.562468 L227,16 Z M234.793685,36.8122401 C235.500312,36.8122401 236.113415,37.0726535 236.632994,37.5934804 C237.152573,38.1143072 237.412363,38.7288829 237.412363,39.4372074 C237.412363,40.1455319 237.152573,40.749691 236.632994,41.2496847 C236.113415,41.7496785 235.500312,41.9996754 234.793685,41.9996754 C234.113508,42.0107252 233.459064,41.7392705 232.98555,41.2496847 C232.497137,40.7750336 232.226333,40.1190181 232.237356,39.4372074 C232.237356,38.7288829 232.486754,38.1143072 232.98555,37.5934804 C233.484346,37.0726535 234.087057,36.8122401 234.793685,36.8122401 L234.793685,36.8122401 Z" id="Shape"></path>
        </g>
    </g>
</svg>