<?xml version="1.0" encoding="UTF-8"?>
<svg width="26px" height="26px" viewBox="0 0 26 26" version="1.1" xmlns="http://www.w3.org/2000/svg" xmlns:xlink="http://www.w3.org/1999/xlink">
    <!-- Generator: Sketch 60.1 (88133) - https://sketch.com -->
    <title>Artboard@2x</title>
    <desc>Created with Sketch.</desc>
    <g id="Page-1" stroke="none" stroke-width="1" fill="none" fill-rule="evenodd">
        <g id="Artboard" transform="translate(-323.000000, -16.000000)" fill="#F41C3B" fill-rule="nonzero">
            <path d="M342.492,34.0668305 C345.724939,34.8717259 347.997183,37.7931532 348,41.1484754 L348,42 L324,42 L324,41.1484754 C324.002041,37.9303747 326.097476,35.094074 329.156571,34.1687371 C331.299429,33.6471135 332.928,31.8715206 333.150857,30.0095662 C332.022857,29.2305853 331.155429,28.0560686 330.857143,26.7451006 L329.828571,22.2353019 C329.046857,18.78775 331.258286,16 334.765714,16 L337.143429,16 C340.657714,16 342.913714,18.7998406 342.197143,22.2543015 L341.268,26.7261011 C340.981714,28.1027038 340.068,29.3290374 338.88,30.1114728 C339.051429,31.8836112 340.505143,33.4847539 342.492,34.0668305 Z" id="Path"></path>
        </g>
    </g>
</svg>