<?xml version="1.0" encoding="UTF-8"?>
<svg width="73px" height="13px" viewBox="0 0 73 13" version="1.1" xmlns="http://www.w3.org/2000/svg" xmlns:xlink="http://www.w3.org/1999/xlink">
    <!-- Generator: Sketch 60.1 (88133) - https://sketch.com -->
    <title>Shape@2x</title>
    <desc>Created with Sketch.</desc>
    <g id="Page-1" stroke="none" stroke-width="1" fill="none" fill-rule="evenodd">
        <g id="Home" transform="translate(-141.000000, -333.000000)" fill="#FACA86" fill-rule="nonzero">
            <g id="Shops" transform="translate(25.000000, 259.000000)">
                <g id="costco" transform="translate(0.000000, 49.000000)">
                    <path d="M128.551943,29.7410411 L125.168032,29.1352308 C124.956894,29.1026397 124.774289,28.964607 124.679182,28.7671435 L123.208826,25.410264 C123.088991,25.1591211 122.845517,25.0019171 122.575413,25.0019171 C122.307211,25.0019171 122.061835,25.1610382 121.942,25.410264 L120.412678,28.7671435 C120.31757,28.9665241 120.134965,29.1045568 119.925729,29.1352308 L116.60459,29.7410411 C116.33829,29.7813007 116.117641,29.9749299 116.033947,30.2394927 C115.952155,30.5059726 116.020632,30.797375 116.212748,30.9910043 L118.767325,33.0806666 C118.919496,33.2359534 118.989875,33.4583395 118.953735,33.6768913 L118.251844,37.2216487 C118.206193,37.4977142 118.379288,37.6932606 118.596132,37.858133 C118.812976,38.0210883 119.102102,38.0440938 119.33987,37.9137295 L122.274874,36.1979059 C122.463186,36.0943814 122.689541,36.0943814 122.877853,36.1979059 L125.942204,37.9156467 C126.04492,37.9712432 126.159048,38 126.269372,38 C126.415837,38 126.562302,37.952072 126.684039,37.8600501 C126.900883,37.6951777 126.946535,37.4977142 126.900883,37.2235658 L126.328339,33.7516591 C126.292198,33.5331072 126.362577,33.3107211 126.514749,33.1554343 L128.939979,30.9929214 C129.132096,30.797375 129.202475,30.5059726 129.118781,30.2414098 C129.036989,29.97493 128.81634,29.7813007 128.551943,29.7410411 Z M145.003567,29.7410411 L141.619657,29.1352308 C141.408519,29.1026397 141.225914,28.964607 141.132709,28.7671435 L139.662353,25.410264 C139.542518,25.1591211 139.299044,25.0019171 139.02894,25.0019171 C138.760738,25.0019171 138.515361,25.1610382 138.395527,25.410264 L136.866205,28.7671435 C136.771097,28.9665241 136.588492,29.1045568 136.379256,29.1352308 L133.056214,29.7410411 C132.789915,29.7813007 132.569266,29.9749299 132.485572,30.2394927 C132.40378,30.5059726 132.472257,30.797375 132.664373,30.9910043 L135.21895,33.0806666 C135.371121,33.2359534 135.4415,33.4583395 135.40536,33.6768913 L134.703469,37.2216487 C134.657818,37.4977142 134.830913,37.6932606 135.047757,37.858133 C135.264601,38.0230055 135.553727,38.0440938 135.791494,37.9137295 L138.726499,36.1979059 C138.914811,36.0943814 139.141166,36.0943814 139.329478,36.1979059 L142.391927,37.9137295 C142.494642,37.9693261 142.608771,37.9980829 142.719095,37.9980829 C142.86556,37.9980829 143.012025,37.9501549 143.133762,37.858133 C143.350606,37.6932606 143.396257,37.4957971 143.350606,37.2216487 L142.778061,33.7497419 C142.741921,33.5311901 142.8123,33.308804 142.964471,33.1535172 L145.389702,30.9910043 C145.581818,30.7954579 145.652198,30.5040555 145.568503,30.2394927 C145.488614,29.97493 145.267965,29.7813007 145.003567,29.7410411 L145.003567,29.7410411 Z M188.421857,25 C188.656088,25 188.870293,25.1182196 189.001208,25.3134013 L189,36.351 L188.722396,36.1959888 C188.565469,36.1097183 188.382123,36.0953399 188.216391,36.1528536 L188.119417,36.1959888 L185.184412,37.9118124 C184.946644,38.0421767 184.657518,38.0210883 184.440674,37.8562159 C184.22383,37.6913435 184.050735,37.4957971 184.096387,37.2197316 L184.096387,37.2197316 L184.798277,33.6749742 C184.834418,33.4564224 184.764038,33.2340363 184.611867,33.0787495 L184.611867,33.0787495 L182.05729,30.9890871 C181.865174,30.7954579 181.796697,30.5040554 181.878489,30.2375756 C181.962183,29.9730128 182.182832,29.7793836 182.449132,29.739124 L182.449132,29.739124 L185.772174,29.1333137 C185.981409,29.1026397 186.164015,28.964607 186.259122,28.7652264 L186.259122,28.7652264 L187.788444,25.4083469 C187.908279,25.1591211 188.151753,25 188.421857,25 Z M161.466605,29.7410411 L158.082695,29.1352308 C157.871557,29.1026397 157.688951,28.964607 157.593844,28.7671435 L156.123489,25.410264 C156.003654,25.1591211 155.760179,25.0019171 155.490075,25.0019171 C155.219971,25.0019171 154.976497,25.1610382 154.856662,25.410264 L153.32734,28.7671435 C153.232233,28.9665241 153.049627,29.1045568 152.840392,29.1352308 L149.51735,29.7410411 C149.25105,29.7813007 149.030402,29.9749299 148.946707,30.2394927 C148.864915,30.5059726 148.933392,30.797375 149.125509,30.9910043 L151.680085,33.0806666 C151.832257,33.2359534 151.902636,33.4583395 151.866495,33.6768913 L151.164605,37.2216487 C151.118953,37.4977142 151.292048,37.6932606 151.508892,37.858133 C151.725737,38.0230055 152.014862,38.0440938 152.25263,37.9137295 L155.187635,36.1979059 C155.375947,36.0943814 155.602302,36.0943814 155.790614,36.1979059 L158.853062,37.9137295 C158.955778,37.9693261 159.069906,37.9980829 159.180231,37.9980829 C159.326695,37.9980829 159.47316,37.9501549 159.594897,37.858133 C159.811742,37.6932606 159.857393,37.4957971 159.811742,37.2216487 L159.239197,33.7497419 C159.203056,33.5311901 159.273435,33.308804 159.425607,33.1535172 L161.850838,30.9910043 C162.042954,30.7954579 162.113333,30.5040555 162.029639,30.2394927 C161.953553,29.97493 161.732905,29.7813007 161.466605,29.7410411 L161.466605,29.7410411 Z M177.931545,29.7410411 L174.547634,29.1352308 C174.336497,29.1026397 174.153891,28.964607 174.060686,28.7671435 L172.590331,25.410264 C172.470496,25.1591211 172.227021,25.0019171 171.956917,25.0019171 C171.688715,25.0019171 171.443339,25.1610382 171.323504,25.410264 L169.794182,28.7671435 C169.699075,28.9665241 169.516469,29.1045568 169.307234,29.1352308 L165.984192,29.7410411 C165.717892,29.7813007 165.497244,29.9749299 165.413549,30.2394927 C165.331757,30.5059726 165.400234,30.797375 165.592351,30.9910043 L168.146927,33.0806666 C168.299099,33.2359534 168.369478,33.4583395 168.333337,33.6768913 L167.631447,37.2216487 C167.585795,37.4977142 167.75889,37.6932606 167.975734,37.858133 C168.192579,38.0230055 168.481704,38.0440938 168.719472,37.9137295 L171.654477,36.1979059 C171.842789,36.0943814 172.069144,36.0943814 172.257456,36.1979059 L175.319904,37.9137295 C175.42262,37.9693261 175.536748,37.9980829 175.647072,37.9980829 C175.793537,37.9980829 175.940002,37.9501549 176.061739,37.858133 C176.278584,37.6932606 176.324235,37.4957971 176.278584,37.2216487 L175.706039,33.7497419 C175.669898,33.5311901 175.740277,33.308804 175.892449,33.1535172 L178.31768,30.9910043 C178.509796,30.7954579 178.580175,30.5040555 178.496481,30.2394927 C178.418493,29.97493 178.197845,29.7813007 177.931545,29.7410411 L177.931545,29.7410411 Z" id="Shape"></path>
                </g>
            </g>
        </g>
    </g>
</svg>