<?xml version="1.0" encoding="UTF-8"?>
<svg width="26px" height="26px" viewBox="0 0 26 26" version="1.1" xmlns="http://www.w3.org/2000/svg" xmlns:xlink="http://www.w3.org/1999/xlink">
    <!-- Generator: Sketch 60.1 (88133) - https://sketch.com -->
    <title>Artboard@2x</title>
    <desc>Created with Sketch.</desc>
    <g id="Page-1" stroke="none" stroke-width="1" fill="none" fill-rule="evenodd">
        <g id="Artboard" transform="translate(-130.000000, -15.000000)" fill="#CCCCCC" fill-rule="nonzero">
            <path d="M153.616684,19.9571205 L131.95,19.9571205 L130,25.980971 C130,27.8428949 131.408342,29.2666889 133.25,29.2666889 C134.983342,29.2666889 136.5,27.7333624 136.5,25.980971 C136.5,27.8428949 137.908342,29.2666889 139.75,29.2666889 C141.483342,29.2666889 143,27.7333624 143,25.980971 C143,27.8428949 144.408342,29.2666889 146.25,29.2666889 C147.983342,29.2666889 149.5,27.7333624 149.5,25.980971 C149.5,27.8428949 150.908342,29.2666889 152.75,29.2666889 C154.483342,29.2666889 156,27.7333624 156,25.980971 L153.616658,19.9571205 L153.616684,19.9571205 Z M134.116684,18.9714308 L151.45,18.9714308 C152.1,18.9714308 152.641684,18.5333265 152.641684,17.9857154 C152.641684,17.4381043 152.100025,17 151.45,17 L134.116684,17 C133.466684,17 132.925,17.4381043 132.925,17.9857154 C132.925,18.5333265 133.466658,18.9714308 134.116684,18.9714308 L134.116684,18.9714308 Z M149.175,29.3761957 C148.308342,30.2523786 147.225,30.6904829 145.925,30.6904829 C144.733316,30.6904829 143.541658,30.2523786 142.675,29.3761957 C141.808342,30.2523786 140.725,30.6904829 139.425,30.6904829 C138.233316,30.6904829 137.041658,30.2523786 136.175,29.3761957 C135.308342,30.2523786 134.225,30.6904829 132.925,30.6904829 C132.816658,30.6904829 132.708342,30.6904829 132.708342,30.6904829 L132.708342,38.0285692 C132.708342,39.2333496 133.791684,40 134.658342,40 L150.366709,40 C151.558393,40 152.316709,39.1238171 152.316709,38.0285692 L152.316709,30.6904829 C152.208367,30.6904829 152.100051,30.6904829 152.100051,30.6904829 C151.233393,30.6904829 150.041709,30.2523786 149.175051,29.3761957 L149.175051,29.3761957 L149.175,29.3761957 Z" id="Shape"></path>
        </g>
    </g>
</svg>